<mxfile host="app.diagrams.net" modified="2023-03-15T19:46:53.696Z" agent="5.0 (Windows NT 10.0; Win64; x64) AppleWebKit/537.36 (KHTML, like Gecko) Chrome/111.0.0.0 Safari/537.36" etag="RaovaDnU348IP6bc5-8B" version="21.0.6" type="github">
  <diagram name="Página-1" id="sIoddWggS7R4to6noUA_">
    <mxGraphModel dx="1434" dy="756" grid="1" gridSize="10" guides="1" tooltips="1" connect="1" arrows="1" fold="1" page="1" pageScale="1" pageWidth="827" pageHeight="1169" math="0" shadow="0">
      <root>
        <mxCell id="0" />
        <mxCell id="1" parent="0" />
        <mxCell id="AHSVJjurg5SsSfiGFdws-8" value="" style="whiteSpace=wrap;html=1;aspect=fixed;" vertex="1" parent="1">
          <mxGeometry x="40" y="50" width="390" height="390" as="geometry" />
        </mxCell>
        <mxCell id="AHSVJjurg5SsSfiGFdws-3" style="edgeStyle=orthogonalEdgeStyle;rounded=0;orthogonalLoop=1;jettySize=auto;html=1;" edge="1" parent="1" source="AHSVJjurg5SsSfiGFdws-1" target="AHSVJjurg5SsSfiGFdws-2">
          <mxGeometry relative="1" as="geometry" />
        </mxCell>
        <mxCell id="AHSVJjurg5SsSfiGFdws-1" value="App Separô" style="rounded=0;whiteSpace=wrap;html=1;" vertex="1" parent="1">
          <mxGeometry x="60" y="120" width="120" height="60" as="geometry" />
        </mxCell>
        <mxCell id="AHSVJjurg5SsSfiGFdws-5" value="" style="edgeStyle=orthogonalEdgeStyle;rounded=0;orthogonalLoop=1;jettySize=auto;html=1;" edge="1" parent="1" source="AHSVJjurg5SsSfiGFdws-2" target="AHSVJjurg5SsSfiGFdws-4">
          <mxGeometry relative="1" as="geometry" />
        </mxCell>
        <mxCell id="AHSVJjurg5SsSfiGFdws-2" value="Nprinting Separô" style="rounded=0;whiteSpace=wrap;html=1;" vertex="1" parent="1">
          <mxGeometry x="230" y="120" width="120" height="60" as="geometry" />
        </mxCell>
        <mxCell id="AHSVJjurg5SsSfiGFdws-7" value="" style="edgeStyle=orthogonalEdgeStyle;rounded=0;orthogonalLoop=1;jettySize=auto;html=1;" edge="1" parent="1" source="AHSVJjurg5SsSfiGFdws-4" target="AHSVJjurg5SsSfiGFdws-6">
          <mxGeometry relative="1" as="geometry" />
        </mxCell>
        <mxCell id="AHSVJjurg5SsSfiGFdws-4" value="XML" style="rounded=0;whiteSpace=wrap;html=1;" vertex="1" parent="1">
          <mxGeometry x="230" y="215" width="120" height="60" as="geometry" />
        </mxCell>
        <mxCell id="AHSVJjurg5SsSfiGFdws-6" value="Import Protheus/Fluig" style="rounded=0;whiteSpace=wrap;html=1;" vertex="1" parent="1">
          <mxGeometry x="230" y="330" width="120" height="60" as="geometry" />
        </mxCell>
        <mxCell id="AHSVJjurg5SsSfiGFdws-11" value="&lt;font style=&quot;font-size: 14px;&quot;&gt;&lt;b&gt;Automatização Separô&lt;/b&gt;&lt;/font&gt;" style="text;html=1;strokeColor=none;fillColor=none;align=center;verticalAlign=middle;whiteSpace=wrap;rounded=0;" vertex="1" parent="1">
          <mxGeometry x="142.5" y="50" width="185" height="30" as="geometry" />
        </mxCell>
        <mxCell id="AHSVJjurg5SsSfiGFdws-12" value="" style="whiteSpace=wrap;html=1;aspect=fixed;" vertex="1" parent="1">
          <mxGeometry x="40" y="470" width="390" height="390" as="geometry" />
        </mxCell>
        <mxCell id="AHSVJjurg5SsSfiGFdws-13" value="&lt;font style=&quot;font-size: 14px;&quot;&gt;&lt;b&gt;Envio de relatório para Conferencia e Integração&lt;/b&gt;&lt;/font&gt;" style="text;html=1;strokeColor=none;fillColor=none;align=center;verticalAlign=middle;whiteSpace=wrap;rounded=0;" vertex="1" parent="1">
          <mxGeometry x="103.75" y="474" width="262.5" height="30" as="geometry" />
        </mxCell>
        <mxCell id="AHSVJjurg5SsSfiGFdws-22" style="edgeStyle=orthogonalEdgeStyle;rounded=0;orthogonalLoop=1;jettySize=auto;html=1;entryX=0.5;entryY=0;entryDx=0;entryDy=0;" edge="1" parent="1" source="AHSVJjurg5SsSfiGFdws-14" target="AHSVJjurg5SsSfiGFdws-15">
          <mxGeometry relative="1" as="geometry" />
        </mxCell>
        <mxCell id="AHSVJjurg5SsSfiGFdws-14" value="Inicio" style="rounded=0;whiteSpace=wrap;html=1;" vertex="1" parent="1">
          <mxGeometry x="75" y="520" width="90" height="40" as="geometry" />
        </mxCell>
        <mxCell id="AHSVJjurg5SsSfiGFdws-23" style="edgeStyle=orthogonalEdgeStyle;rounded=0;orthogonalLoop=1;jettySize=auto;html=1;entryX=0.5;entryY=0;entryDx=0;entryDy=0;" edge="1" parent="1" source="AHSVJjurg5SsSfiGFdws-15" target="AHSVJjurg5SsSfiGFdws-17">
          <mxGeometry relative="1" as="geometry" />
        </mxCell>
        <mxCell id="AHSVJjurg5SsSfiGFdws-15" value="Envio E-mail Nprinting" style="rounded=0;whiteSpace=wrap;html=1;" vertex="1" parent="1">
          <mxGeometry x="60" y="584.5" width="120" height="60" as="geometry" />
        </mxCell>
        <mxCell id="AHSVJjurg5SsSfiGFdws-21" value="" style="edgeStyle=orthogonalEdgeStyle;rounded=0;orthogonalLoop=1;jettySize=auto;html=1;" edge="1" parent="1" source="AHSVJjurg5SsSfiGFdws-17" target="AHSVJjurg5SsSfiGFdws-18">
          <mxGeometry relative="1" as="geometry" />
        </mxCell>
        <mxCell id="AHSVJjurg5SsSfiGFdws-17" value="Envio E-mail Nprinting" style="rounded=0;whiteSpace=wrap;html=1;" vertex="1" parent="1">
          <mxGeometry x="60" y="670" width="120" height="60" as="geometry" />
        </mxCell>
        <mxCell id="AHSVJjurg5SsSfiGFdws-18" value="Job integração Protheus/ Fluig" style="rounded=0;whiteSpace=wrap;html=1;" vertex="1" parent="1">
          <mxGeometry x="60" y="760" width="120" height="60" as="geometry" />
        </mxCell>
        <mxCell id="AHSVJjurg5SsSfiGFdws-25" value="&lt;font style=&quot;font-size: 10px;&quot;&gt;envio ás 07:00 - informativo&lt;/font&gt;" style="text;html=1;strokeColor=none;fillColor=none;align=left;verticalAlign=middle;whiteSpace=wrap;rounded=0;" vertex="1" parent="1">
          <mxGeometry x="190" y="599.5" width="70" height="30" as="geometry" />
        </mxCell>
        <mxCell id="AHSVJjurg5SsSfiGFdws-26" value="&lt;font style=&quot;font-size: 10px;&quot;&gt;envio ás 17:00 - geração arquivo CSV&lt;/font&gt;" style="text;html=1;strokeColor=none;fillColor=none;align=left;verticalAlign=middle;whiteSpace=wrap;rounded=0;" vertex="1" parent="1">
          <mxGeometry x="188" y="685" width="100" height="30" as="geometry" />
        </mxCell>
        <mxCell id="AHSVJjurg5SsSfiGFdws-27" value="&lt;span style=&quot;font-size: 10px;&quot;&gt;envio JOB integração ás 18:00&lt;/span&gt;" style="text;html=1;strokeColor=none;fillColor=none;align=left;verticalAlign=middle;whiteSpace=wrap;rounded=0;" vertex="1" parent="1">
          <mxGeometry x="191" y="775" width="100" height="30" as="geometry" />
        </mxCell>
        <mxCell id="AHSVJjurg5SsSfiGFdws-28" value="&lt;font style=&quot;font-size: 10px;&quot;&gt;Inicio na ultima quinta-feira do mês&lt;/font&gt;" style="text;html=1;strokeColor=none;fillColor=none;align=left;verticalAlign=middle;whiteSpace=wrap;rounded=0;" vertex="1" parent="1">
          <mxGeometry x="193" y="526.5" width="97" height="30" as="geometry" />
        </mxCell>
      </root>
    </mxGraphModel>
  </diagram>
</mxfile>
